<svg fill="#000000" xmlns="http://www.w3.org/2000/svg"  viewBox="0 0 32 32" width="32px" height="32px"><path d="M 11.806641 4 L 6 6.3222656 L 6 28 L 26 28 L 26 6.3222656 L 20.193359 4 L 20 4 L 11.806641 4 z M 12.333984 6 L 15 6 L 15 14 L 12.333984 6 z M 17 6 L 19.666016 6 L 17 14 L 17 6 z M 9.2480469 7.1777344 L 11.689453 8.9316406 L 10 11 L 15 17 L 15 26 L 8 26 L 8 7.6777344 L 9.2480469 7.1777344 z M 22.751953 7.1777344 L 24 7.6777344 L 24 26 L 17 26 L 17 17 L 22 11 L 20.310547 8.9316406 L 22.751953 7.1777344 z M 19 19 A 1 1 0 0 0 19 21 A 1 1 0 0 0 19 19 z M 19 23 A 1 1 0 0 0 19 25 A 1 1 0 0 0 19 23 z"/></svg>